<?xml version="1.0" encoding="utf-8"?>
<!-- Generator: Adobe Illustrator 19.2.1, SVG Export Plug-In . SVG Version: 6.00 Build 0)  -->
<svg version="1.1"
	 id="Layer_1" inkscape:version="0.91 r13725" sodipodi:docname="markit_w.svg" xmlns:cc="http://creativecommons.org/ns#" xmlns:dc="http://purl.org/dc/elements/1.1/" xmlns:inkscape="http://www.inkscape.org/namespaces/inkscape" xmlns:rdf="http://www.w3.org/1999/02/22-rdf-syntax-ns#" xmlns:sodipodi="http://sodipodi.sourceforge.net/DTD/sodipodi-0.dtd" xmlns:svg="http://www.w3.org/2000/svg"
	 xmlns="http://www.w3.org/2000/svg" xmlns:xlink="http://www.w3.org/1999/xlink" x="0px" y="0px" viewBox="0 0 691 193"
	 style="enable-background:new 0 0 691 193;" xml:space="preserve">
<style type="text/css">
	.st0{fill:url(#path14_1_);}
	.st1{fill:#4B4B4B;}
</style>
<sodipodi:namedview  bordercolor="#666666" borderopacity="1" gridtolerance="10" guidetolerance="10" id="namedview46" inkscape:current-layer="Layer_1" inkscape:cx="52.959854" inkscape:cy="96.5" inkscape:pageopacity="0" inkscape:pageshadow="2" inkscape:window-height="690" inkscape:window-maximized="0" inkscape:window-width="1390" inkscape:window-x="1384" inkscape:window-y="28" inkscape:zoom="0.39652677" objecttolerance="10" pagecolor="#ffffff" showgrid="false">
	</sodipodi:namedview>
<g id="g3831">
	<g id="g3818">
		
			<radialGradient id="path14_1_" cx="115.5686" cy="125.55" r="127.8006" gradientTransform="matrix(1 0 0 -1 0 194)" gradientUnits="userSpaceOnUse">
			<stop  offset="0" style="stop-color:#328F8A"/>
			<stop  offset="1" style="stop-color:#08AC4B"/>
		</radialGradient>
		<path id="path14" inkscape:connector-curvature="0" class="st0" d="M106.4,47.6l-91.9,99.9c-1.4-2.2-2.7-4.5-3.8-6.8l96.3-96
			c0.6-0.5,2.3-2,1.8-1.3C108.5,43.7,106.9,46.6,106.4,47.6z M103.9,59.7L103.9,59.7l-59.6,118c2,1.3,4.1,2.6,6.2,3.7l53.6-118.3
			C104,62,103.9,60.9,103.9,59.7z M105.1,51.1c-0.1-0.1-0.3,0.4-0.7,0.9L25,161.3c1.8,2,3.6,3.8,5.6,5.6l73.7-111.7
			C104.4,54,104.8,52.3,105.1,51.1z M156.7,78.2L191,78c-0.4-1.8-0.8-4.5-1.2-6.3L158,76.5C157.6,77.1,157.2,77.6,156.7,78.2z
			 M128.3,88.8l33.6,78.4c1.7-1.6,3.4-3.3,5-5l-36.8-73.1C129.6,89,128.9,88.9,128.3,88.8z M160.6,71.8c0.1,0,0.3-0.1,0.4-0.2
			l23-15.7c-0.9-1.8-2.3-4.4-3.3-6.2l-18.8,18.6C161.6,69.6,161.1,70.7,160.6,71.8L160.6,71.8z M152.3,82.7c-0.4,0.3-0.9,0.7-1.3,1
			l41.7,18.6c0.1-1.8,0.4-4.4,0.4-6.2L152.3,82.7z M105.1,68.1l-38,120.3c2.4,0.8,4.8,1.4,7.2,2L106,70.8
			C105.7,69.9,105.4,69,105.1,68.1z M136.2,89.2l40.9,60c1.1-1.8,2.8-4.4,3.8-6.2l-43.2-54C137.3,89.1,136.8,89.1,136.2,89.2
			L136.2,89.2z M144,87.4l44,39.3c0.6-1.8,1.5-4.6,2-6.5l-44.6-33.4C144.9,87,144.4,87.2,144,87.4L144,87.4z M120.8,86.4l20.1,95.7
			c2.1-1.1,4.6-2.5,6.5-3.7l-25-91.2C121.9,86.9,121.3,86.6,120.8,86.4z M114,81.9l3.2,108.8c2.5-0.6,5-1.2,7.5-1.9l-9-105.5
			C115,82.8,114.5,82.3,114,81.9z M92,192.8c1.4,0.1,2.9,0.1,4.4,0.1c1,0,2,0,3.1-0.1L110,77.6c-0.5-0.6-0.9-1.3-1.4-2L92,192.8z
			 M131.2,30h0.4c0.6,0,1.3-0.1,1.9-0.1c16.4,0,29.7,13.3,29.7,29.7c0,1.7-0.2,3.4-0.4,5.1c0.3,0,0.6-0.2,0.7-0.4l7.4-28.6
			c-1.5-1.8-3.4-4.3-5.1-6l-2.3,20.5c-0.4-1.3-1-2.6-2.2-5.1c-0.4-0.8-0.9-1.7-1.5-2.5l-7.3-24.5c-2.5-1.8-5.1-3.5-7.8-5.1l9.5,23.1
			c-1.7-1.6-3.4-3-4.3-3.8L129.9,6c-3.2-1.2-6.5-2.2-9.9-3.1l24.4,27.4l-0.6-0.1L104.4,0.4c-2.6-0.2-5.3-0.4-8-0.4
			c-0.7,0-1.5,0-2.2,0.1l38.9,26L79,1.6c-3.1,0.6-6.1,1.3-9.1,2.1l58.6,23L54.4,9.6c-2.8,1.4-5.5,2.8-8.2,4.5l75.1,13.7l-88.4-3.9
			c-2,1.8-5,4.6-6.8,6.6l91.7-0.5L16.2,43c-1.7,2.5-3.2,5.1-4.7,7.7l103.3-18L4.5,67.1c-0.8,2.5-1.5,5-2.1,7.6l110.1-39.2L0.1,91.4
			C0,93.1,0,94.8,0,96.5c0,0.7-0.1,2.3-0.1,3l111.1-61L2,116.4c0.5,2.5,1.2,4.9,1.9,7.4l106.8-83c0.5-0.6,1.1-1.2,1.6-1.8
			c1.2-1.1,2.9-2.6,4.8-4C121,32.2,126.9,30.4,131.2,30L131.2,30z"/>
		<path id="path22" inkscape:connector-curvature="0" class="st1" d="M241.1,59.1h6.5v68h-6.5V59.1z"/>
		<path id="path24" inkscape:connector-curvature="0" class="st1" d="M265.5,59.1h6.5v29.1h36.8V59.1h6.5v68h-6.5V94.2H272v32.9
			h-6.5V59.1z"/>
		<path id="path26" inkscape:connector-curvature="0" class="st1" d="M328.9,110.3l5.8-2.1c3,9.5,9.9,14.3,19.5,14.3
			c10.2,0,16.8-4.7,16.8-12.3c0-7.1-3.4-10.7-17.8-15.3c-14.6-4.6-22.1-8.5-22.1-19.8c0-9.7,8.7-17.5,21.1-17.5
			c12.8,0,20.1,6.5,23.3,15.6l-5.5,2.6c-3.4-8.8-9.4-12.3-17.9-12.3c-9.1,0-14.6,4.9-14.6,11.1c0,7.6,4.5,10.2,18.8,14.8
			c14.2,4.5,21.1,9.2,21.1,20.2c0,11.3-10,18.6-23.6,18.6C341.1,128.3,332.1,121.4,328.9,110.3L328.9,110.3z"/>
		<path id="path28" inkscape:connector-curvature="0" class="st1" d="M410.9,59.1h8.5l22.8,59.5h0.2L465,59.1h8.6v68H467v-57h-0.2
			c-0.9,3-2.6,7.5-4.2,11.9L445,127h-6l-17.6-45c-1.7-4.4-2.8-7.3-4.2-12.1H417v57.2h-6.1L410.9,59.1L410.9,59.1z"/>
		<path id="path30" inkscape:connector-curvature="0" class="st1" d="M487,115.8c0-9.6,8.2-16.5,32.8-20.3V93c0-6.7-3.5-9.9-9.8-9.9
			c-7.6,0-13,3.2-18.1,7.6l-3.4-4c5.8-5.3,12.5-9,22.1-9c10.8,0,15.5,5.8,15.5,15.4v22c0,5.9,0.4,9.5,1.4,11.9H521
			c-0.6-2-1.1-4.1-1.1-6.9c-5.6,5.1-11.9,7.7-19.1,7.7C492.1,127.9,487,123.3,487,115.8L487,115.8z M519.8,115V99.9
			c-20.8,3.5-26.6,8.6-26.6,15c0,5.1,3.4,7.7,8.8,7.7C508.9,122.6,514.9,119.8,519.8,115z"/>
		<path id="path32" inkscape:connector-curvature="0" class="st1" d="M540.8,78.6h6.3v9.6h0.2c3.8-6,9.6-10.5,19.2-10.5h1.1
			l-0.6,5.9c0,0-1.7-0.1-1.9-0.1c-7.9,0-14.2,4.4-17.9,12V127h-6.3L540.8,78.6L540.8,78.6z"/>
		<path id="path34" inkscape:connector-curvature="0" class="st1" d="M577.1,59.1h6.3v45.1l23.1-25.5h7.4l-15.8,17.1l17.7,31.3H609
			l-15.1-26.5l-10.5,11.2v15.3h-6.3L577.1,59.1L577.1,59.1z"/>
		<path id="path36" inkscape:connector-curvature="0" class="st1" d="M626.1,60.6h6.7v6.8h-6.7C626.1,67.4,626.1,60.6,626.1,60.6z
			 M626.3,78.6h6.3V127h-6.3V78.6z"/>
		<path id="path38" inkscape:connector-curvature="0" class="st1" d="M651.5,115.8V84.1H643v-5.4h8.5V61.3h6.3v17.4h12.6v5.4h-12.6
			v30.4c0,5.1,1.7,7.9,7.6,7.9c1.8,0,3.7-0.2,5.1-0.6v5.4c-1.5,0.3-4,0.6-6.2,0.6C655,127.7,651.5,124.1,651.5,115.8L651.5,115.8z"
			/>
		<path id="path44" inkscape:connector-curvature="0" class="st1" d="M680.1,79.1c0-0.9,0.2-1.7,0.5-2.3c0.3-0.7,0.7-1.2,1.3-1.7
			s1.1-0.8,1.8-1s1.4-0.3,2.1-0.3c0.8,0,1.5,0.2,2.1,0.4c0.7,0.3,1.2,0.6,1.7,1.1s0.8,1.1,1.1,1.8c0.3,0.7,0.4,1.5,0.3,2.4
			c0,0.9-0.2,1.7-0.5,2.3c-0.3,0.7-0.7,1.2-1.3,1.7c-0.5,0.4-1.1,0.8-1.8,1s-1.4,0.3-2.1,0.3c-0.8,0-1.5-0.2-2.1-0.4
			c-0.7-0.3-1.2-0.6-1.7-1.1s-0.8-1.1-1.1-1.8C680.2,80.8,680.1,80,680.1,79.1z M681.4,79.2c0,0.7,0.1,1.4,0.3,1.9s0.5,1,0.9,1.4
			s0.8,0.7,1.3,0.9c0.5,0.2,1,0.3,1.6,0.3s1.2,0,1.7-0.2s1-0.4,1.4-0.7c0.4-0.3,0.7-0.8,0.9-1.3s0.4-1.2,0.4-1.9
			c0-0.7-0.1-1.4-0.3-1.9s-0.5-1-0.9-1.4s-0.8-0.7-1.3-0.9c-0.5-0.2-1-0.3-1.6-0.3s-1.2,0-1.7,0.2s-1,0.4-1.4,0.7
			c-0.4,0.3-0.7,0.8-0.9,1.3S681.5,78.5,681.4,79.2z M683.6,76.6c0.2-0.1,0.5-0.1,0.9-0.1s0.8,0,1.1,0c0.6,0,1.1,0.2,1.5,0.4
			c0.4,0.3,0.6,0.7,0.6,1.3c0,0.4-0.2,0.8-0.5,1s-0.6,0.3-1.1,0.4l0.6,0.3l1.4,2.3h-1.3l-1.4-2.2l-1-0.4l-0.1,2.5h-1.1L683.6,76.6
			L683.6,76.6z M685.4,77.4c-0.2,0-0.3,0-0.4,0c-0.1,0-0.3,0-0.3,0.1l-0.1,1.5h0.7c0.4,0,0.7,0,0.9-0.2c0.2-0.1,0.3-0.3,0.4-0.6
			C686.6,77.6,686.2,77.4,685.4,77.4L685.4,77.4z"/>
	</g>
</g>
</svg>
